<mxfile host="app.diagrams.net" modified="2023-05-10T13:58:09.603Z" agent="Mozilla/5.0 (Windows NT 10.0; Win64; x64; rv:109.0) Gecko/20100101 Firefox/109.0" etag="WokH5-czQA9WjUCIfK2H" version="21.2.8">
  <diagram name="Pagina-1" id="RRhrBT6LJgcDaCWM-lvB">
    <mxGraphModel dx="2501" dy="1990" grid="1" gridSize="10" guides="1" tooltips="1" connect="1" arrows="1" fold="1" page="1" pageScale="1" pageWidth="827" pageHeight="1169" math="0" shadow="0">
      <root>
        <mxCell id="0" />
        <mxCell id="1" parent="0" />
        <mxCell id="c-mmExKBXP0bgUHNKic0-1" value="User" style="swimlane;fontStyle=0;childLayout=stackLayout;horizontal=1;startSize=26;horizontalStack=0;resizeParent=1;resizeParentMax=0;resizeLast=0;collapsible=1;marginBottom=0;align=center;fontSize=14;" parent="1" vertex="1">
          <mxGeometry x="120" y="80" width="160" height="206" as="geometry" />
        </mxCell>
        <mxCell id="c-mmExKBXP0bgUHNKic0-2" value="&lt;b&gt;id&lt;/b&gt;" style="text;strokeColor=none;fillColor=none;spacingLeft=4;spacingRight=4;overflow=hidden;rotatable=0;points=[[0,0.5],[1,0.5]];portConstraint=eastwest;fontSize=12;whiteSpace=wrap;html=1;" parent="c-mmExKBXP0bgUHNKic0-1" vertex="1">
          <mxGeometry y="26" width="160" height="26" as="geometry" />
        </mxCell>
        <mxCell id="c-mmExKBXP0bgUHNKic0-9" value="username" style="text;strokeColor=none;fillColor=none;spacingLeft=4;spacingRight=4;overflow=hidden;rotatable=0;points=[[0,0.5],[1,0.5]];portConstraint=eastwest;fontSize=12;whiteSpace=wrap;html=1;" parent="c-mmExKBXP0bgUHNKic0-1" vertex="1">
          <mxGeometry y="52" width="160" height="30" as="geometry" />
        </mxCell>
        <mxCell id="c-mmExKBXP0bgUHNKic0-8" value="name" style="text;strokeColor=none;fillColor=none;spacingLeft=4;spacingRight=4;overflow=hidden;rotatable=0;points=[[0,0.5],[1,0.5]];portConstraint=eastwest;fontSize=12;whiteSpace=wrap;html=1;" parent="c-mmExKBXP0bgUHNKic0-1" vertex="1">
          <mxGeometry y="82" width="160" height="30" as="geometry" />
        </mxCell>
        <mxCell id="c-mmExKBXP0bgUHNKic0-4" value="last name" style="text;strokeColor=none;fillColor=none;spacingLeft=4;spacingRight=4;overflow=hidden;rotatable=0;points=[[0,0.5],[1,0.5]];portConstraint=eastwest;fontSize=12;whiteSpace=wrap;html=1;" parent="c-mmExKBXP0bgUHNKic0-1" vertex="1">
          <mxGeometry y="112" width="160" height="34" as="geometry" />
        </mxCell>
        <mxCell id="c-mmExKBXP0bgUHNKic0-5" value="email" style="text;strokeColor=none;fillColor=none;spacingLeft=4;spacingRight=4;overflow=hidden;rotatable=0;points=[[0,0.5],[1,0.5]];portConstraint=eastwest;fontSize=12;whiteSpace=wrap;html=1;" parent="c-mmExKBXP0bgUHNKic0-1" vertex="1">
          <mxGeometry y="146" width="160" height="30" as="geometry" />
        </mxCell>
        <mxCell id="2DttiCM8GW-e6cQcbPvV-80" value="" style="endArrow=none;html=1;rounded=0;entryX=-0.017;entryY=0.167;entryDx=0;entryDy=0;entryPerimeter=0;exitX=0;exitY=0.5;exitDx=0;exitDy=0;" parent="c-mmExKBXP0bgUHNKic0-1" source="c-mmExKBXP0bgUHNKic0-5" edge="1">
          <mxGeometry relative="1" as="geometry">
            <mxPoint x="80" y="166.5" as="sourcePoint" />
            <mxPoint x="-180" y="223.5" as="targetPoint" />
            <Array as="points" />
          </mxGeometry>
        </mxCell>
        <mxCell id="2DttiCM8GW-e6cQcbPvV-81" value="&lt;b&gt;&lt;font style=&quot;font-size: 16px;&quot;&gt;sending&lt;/font&gt;&lt;/b&gt;" style="edgeLabel;html=1;align=center;verticalAlign=middle;resizable=0;points=[];" parent="2DttiCM8GW-e6cQcbPvV-80" connectable="0" vertex="1">
          <mxGeometry x="-0.3794" y="-3" relative="1" as="geometry">
            <mxPoint x="-44" y="10" as="offset" />
          </mxGeometry>
        </mxCell>
        <mxCell id="c-mmExKBXP0bgUHNKic0-7" value="password" style="text;strokeColor=none;fillColor=none;spacingLeft=4;spacingRight=4;overflow=hidden;rotatable=0;points=[[0,0.5],[1,0.5]];portConstraint=eastwest;fontSize=12;whiteSpace=wrap;html=1;" parent="c-mmExKBXP0bgUHNKic0-1" vertex="1">
          <mxGeometry y="176" width="160" height="30" as="geometry" />
        </mxCell>
        <mxCell id="c-mmExKBXP0bgUHNKic0-10" value="Post" style="swimlane;fontStyle=0;childLayout=stackLayout;horizontal=1;startSize=26;horizontalStack=0;resizeParent=1;resizeParentMax=0;resizeLast=0;collapsible=1;marginBottom=0;align=center;fontSize=14;" parent="1" vertex="1">
          <mxGeometry x="480" y="80" width="160" height="116" as="geometry" />
        </mxCell>
        <mxCell id="c-mmExKBXP0bgUHNKic0-11" value="&lt;b&gt;id&lt;/b&gt;" style="text;strokeColor=none;fillColor=none;spacingLeft=4;spacingRight=4;overflow=hidden;rotatable=0;points=[[0,0.5],[1,0.5]];portConstraint=eastwest;fontSize=12;whiteSpace=wrap;html=1;" parent="c-mmExKBXP0bgUHNKic0-10" vertex="1">
          <mxGeometry y="26" width="160" height="30" as="geometry" />
        </mxCell>
        <mxCell id="c-mmExKBXP0bgUHNKic0-12" value="title" style="text;strokeColor=none;fillColor=none;spacingLeft=4;spacingRight=4;overflow=hidden;rotatable=0;points=[[0,0.5],[1,0.5]];portConstraint=eastwest;fontSize=12;whiteSpace=wrap;html=1;" parent="c-mmExKBXP0bgUHNKic0-10" vertex="1">
          <mxGeometry y="56" width="160" height="30" as="geometry" />
        </mxCell>
        <mxCell id="c-mmExKBXP0bgUHNKic0-13" value="description" style="text;strokeColor=none;fillColor=none;spacingLeft=4;spacingRight=4;overflow=hidden;rotatable=0;points=[[0,0.5],[1,0.5]];portConstraint=eastwest;fontSize=12;whiteSpace=wrap;html=1;" parent="c-mmExKBXP0bgUHNKic0-10" vertex="1">
          <mxGeometry y="86" width="160" height="30" as="geometry" />
        </mxCell>
        <mxCell id="c-mmExKBXP0bgUHNKic0-17" value="Image" style="swimlane;fontStyle=0;childLayout=stackLayout;horizontal=1;startSize=30;horizontalStack=0;resizeParent=1;resizeParentMax=0;resizeLast=0;collapsible=1;marginBottom=0;align=center;fontSize=14;" parent="1" vertex="1">
          <mxGeometry x="480" y="360" width="160" height="90" as="geometry" />
        </mxCell>
        <mxCell id="c-mmExKBXP0bgUHNKic0-18" value="&lt;b&gt;id&lt;/b&gt;" style="text;strokeColor=none;fillColor=none;spacingLeft=4;spacingRight=4;overflow=hidden;rotatable=0;points=[[0,0.5],[1,0.5]];portConstraint=eastwest;fontSize=12;whiteSpace=wrap;html=1;" parent="c-mmExKBXP0bgUHNKic0-17" vertex="1">
          <mxGeometry y="30" width="160" height="30" as="geometry" />
        </mxCell>
        <mxCell id="c-mmExKBXP0bgUHNKic0-19" value="name" style="text;strokeColor=none;fillColor=none;spacingLeft=4;spacingRight=4;overflow=hidden;rotatable=0;points=[[0,0.5],[1,0.5]];portConstraint=eastwest;fontSize=12;whiteSpace=wrap;html=1;" parent="c-mmExKBXP0bgUHNKic0-17" vertex="1">
          <mxGeometry y="60" width="160" height="30" as="geometry" />
        </mxCell>
        <mxCell id="2DttiCM8GW-e6cQcbPvV-9" value="Trip" style="swimlane;fontStyle=0;childLayout=stackLayout;horizontal=1;startSize=26;horizontalStack=0;resizeParent=1;resizeParentMax=0;resizeLast=0;collapsible=1;marginBottom=0;align=center;fontSize=14;" parent="1" vertex="1">
          <mxGeometry x="890" y="80" width="160" height="56" as="geometry" />
        </mxCell>
        <mxCell id="2DttiCM8GW-e6cQcbPvV-10" value="&lt;b&gt;id&lt;/b&gt;" style="text;strokeColor=none;fillColor=none;spacingLeft=4;spacingRight=4;overflow=hidden;rotatable=0;points=[[0,0.5],[1,0.5]];portConstraint=eastwest;fontSize=12;whiteSpace=wrap;html=1;" parent="2DttiCM8GW-e6cQcbPvV-9" vertex="1">
          <mxGeometry y="26" width="160" height="30" as="geometry" />
        </mxCell>
        <mxCell id="2DttiCM8GW-e6cQcbPvV-13" value="Destination" style="swimlane;fontStyle=0;childLayout=stackLayout;horizontal=1;startSize=26;horizontalStack=0;resizeParent=1;resizeParentMax=0;resizeLast=0;collapsible=1;marginBottom=0;align=center;fontSize=14;" parent="1" vertex="1">
          <mxGeometry x="890" y="300" width="160" height="116" as="geometry" />
        </mxCell>
        <mxCell id="2DttiCM8GW-e6cQcbPvV-14" value="&lt;b&gt;id&lt;/b&gt;" style="text;strokeColor=none;fillColor=none;spacingLeft=4;spacingRight=4;overflow=hidden;rotatable=0;points=[[0,0.5],[1,0.5]];portConstraint=eastwest;fontSize=12;whiteSpace=wrap;html=1;" parent="2DttiCM8GW-e6cQcbPvV-13" vertex="1">
          <mxGeometry y="26" width="160" height="30" as="geometry" />
        </mxCell>
        <mxCell id="2DttiCM8GW-e6cQcbPvV-17" value="init-date" style="text;strokeColor=none;fillColor=none;spacingLeft=4;spacingRight=4;overflow=hidden;rotatable=0;points=[[0,0.5],[1,0.5]];portConstraint=eastwest;fontSize=12;whiteSpace=wrap;html=1;" parent="2DttiCM8GW-e6cQcbPvV-13" vertex="1">
          <mxGeometry y="56" width="160" height="30" as="geometry" />
        </mxCell>
        <mxCell id="2DttiCM8GW-e6cQcbPvV-18" value="end-date" style="text;strokeColor=none;fillColor=none;spacingLeft=4;spacingRight=4;overflow=hidden;rotatable=0;points=[[0,0.5],[1,0.5]];portConstraint=eastwest;fontSize=12;whiteSpace=wrap;html=1;" parent="2DttiCM8GW-e6cQcbPvV-13" vertex="1">
          <mxGeometry y="86" width="160" height="30" as="geometry" />
        </mxCell>
        <mxCell id="2DttiCM8GW-e6cQcbPvV-15" value="" style="fontSize=12;html=1;endArrow=ERoneToMany;rounded=0;entryX=0.5;entryY=0;entryDx=0;entryDy=0;exitX=0.5;exitY=1;exitDx=0;exitDy=0;" parent="1" source="2DttiCM8GW-e6cQcbPvV-9" target="2DttiCM8GW-e6cQcbPvV-13" edge="1">
          <mxGeometry width="100" height="100" relative="1" as="geometry">
            <mxPoint x="840" y="140" as="sourcePoint" />
            <mxPoint x="550" y="240" as="targetPoint" />
          </mxGeometry>
        </mxCell>
        <mxCell id="2DttiCM8GW-e6cQcbPvV-16" value="&lt;font style=&quot;font-size: 16px;&quot;&gt;&lt;b&gt;composition&lt;/b&gt;&lt;/font&gt;" style="edgeLabel;html=1;align=center;verticalAlign=middle;resizable=0;points=[];" parent="2DttiCM8GW-e6cQcbPvV-15" connectable="0" vertex="1">
          <mxGeometry x="-0.2268" y="-2" relative="1" as="geometry">
            <mxPoint x="2" y="14" as="offset" />
          </mxGeometry>
        </mxCell>
        <mxCell id="2DttiCM8GW-e6cQcbPvV-24" value="Comments" style="swimlane;fontStyle=0;childLayout=stackLayout;horizontal=1;startSize=26;horizontalStack=0;resizeParent=1;resizeParentMax=0;resizeLast=0;collapsible=1;marginBottom=0;align=center;fontSize=14;" parent="1" vertex="1">
          <mxGeometry x="120" y="400" width="160" height="146" as="geometry" />
        </mxCell>
        <mxCell id="2DttiCM8GW-e6cQcbPvV-25" value="&lt;b&gt;id&lt;/b&gt;" style="text;strokeColor=none;fillColor=none;spacingLeft=4;spacingRight=4;overflow=hidden;rotatable=0;points=[[0,0.5],[1,0.5]];portConstraint=eastwest;fontSize=12;whiteSpace=wrap;html=1;" parent="2DttiCM8GW-e6cQcbPvV-24" vertex="1">
          <mxGeometry y="26" width="160" height="30" as="geometry" />
        </mxCell>
        <mxCell id="2DttiCM8GW-e6cQcbPvV-26" value="description" style="text;strokeColor=none;fillColor=none;spacingLeft=4;spacingRight=4;overflow=hidden;rotatable=0;points=[[0,0.5],[1,0.5]];portConstraint=eastwest;fontSize=12;whiteSpace=wrap;html=1;" parent="2DttiCM8GW-e6cQcbPvV-24" vertex="1">
          <mxGeometry y="56" width="160" height="30" as="geometry" />
        </mxCell>
        <mxCell id="2DttiCM8GW-e6cQcbPvV-27" value="date" style="text;strokeColor=none;fillColor=none;spacingLeft=4;spacingRight=4;overflow=hidden;rotatable=0;points=[[0,0.5],[1,0.5]];portConstraint=eastwest;fontSize=12;whiteSpace=wrap;html=1;" parent="2DttiCM8GW-e6cQcbPvV-24" vertex="1">
          <mxGeometry y="86" width="160" height="30" as="geometry" />
        </mxCell>
        <mxCell id="2DttiCM8GW-e6cQcbPvV-53" value="time" style="text;strokeColor=none;fillColor=none;spacingLeft=4;spacingRight=4;overflow=hidden;rotatable=0;points=[[0,0.5],[1,0.5]];portConstraint=eastwest;fontSize=12;whiteSpace=wrap;html=1;" parent="2DttiCM8GW-e6cQcbPvV-24" vertex="1">
          <mxGeometry y="116" width="160" height="30" as="geometry" />
        </mxCell>
        <mxCell id="2DttiCM8GW-e6cQcbPvV-31" value="" style="endArrow=none;html=1;rounded=0;entryX=-0.017;entryY=0.167;entryDx=0;entryDy=0;entryPerimeter=0;" parent="1" target="c-mmExKBXP0bgUHNKic0-10" edge="1">
          <mxGeometry relative="1" as="geometry">
            <mxPoint x="280" y="100" as="sourcePoint" />
            <mxPoint x="440" y="100" as="targetPoint" />
          </mxGeometry>
        </mxCell>
        <mxCell id="2DttiCM8GW-e6cQcbPvV-32" value="&lt;b&gt;&lt;font style=&quot;font-size: 16px;&quot;&gt;like&lt;/font&gt;&lt;/b&gt;" style="edgeLabel;html=1;align=center;verticalAlign=middle;resizable=0;points=[];" parent="2DttiCM8GW-e6cQcbPvV-31" connectable="0" vertex="1">
          <mxGeometry x="-0.3794" y="-3" relative="1" as="geometry">
            <mxPoint x="19" y="-3" as="offset" />
          </mxGeometry>
        </mxCell>
        <mxCell id="2DttiCM8GW-e6cQcbPvV-35" value="" style="endArrow=none;html=1;rounded=0;entryX=-0.017;entryY=0.167;entryDx=0;entryDy=0;entryPerimeter=0;" parent="1" edge="1">
          <mxGeometry relative="1" as="geometry">
            <mxPoint x="280" y="141" as="sourcePoint" />
            <mxPoint x="477" y="140" as="targetPoint" />
          </mxGeometry>
        </mxCell>
        <mxCell id="2DttiCM8GW-e6cQcbPvV-36" value="&lt;b&gt;&lt;font style=&quot;font-size: 16px;&quot;&gt;pubblication&lt;/font&gt;&lt;/b&gt;" style="edgeLabel;html=1;align=center;verticalAlign=middle;resizable=0;points=[];" parent="2DttiCM8GW-e6cQcbPvV-35" connectable="0" vertex="1">
          <mxGeometry x="-0.3794" y="-3" relative="1" as="geometry">
            <mxPoint x="29" y="-6" as="offset" />
          </mxGeometry>
        </mxCell>
        <mxCell id="2DttiCM8GW-e6cQcbPvV-38" value="0-N" style="edgeLabel;html=1;align=center;verticalAlign=middle;resizable=0;points=[];" parent="1" connectable="0" vertex="1">
          <mxGeometry x="420.001334541685" y="90.00264173943846" as="geometry">
            <mxPoint x="47" y="-2" as="offset" />
          </mxGeometry>
        </mxCell>
        <mxCell id="2DttiCM8GW-e6cQcbPvV-41" value="0-N" style="edgeLabel;html=1;align=center;verticalAlign=middle;resizable=0;points=[];" parent="1" connectable="0" vertex="1">
          <mxGeometry x="290.001334541685" y="130.00264173943847" as="geometry" />
        </mxCell>
        <mxCell id="2DttiCM8GW-e6cQcbPvV-42" value="1-1" style="edgeLabel;html=1;align=center;verticalAlign=middle;resizable=0;points=[];" parent="1" connectable="0" vertex="1">
          <mxGeometry x="470.001334541685" y="130.00264173943847" as="geometry">
            <mxPoint x="1" y="-1" as="offset" />
          </mxGeometry>
        </mxCell>
        <mxCell id="2DttiCM8GW-e6cQcbPvV-43" value="" style="endArrow=none;html=1;rounded=0;" parent="1" source="c-mmExKBXP0bgUHNKic0-13" target="c-mmExKBXP0bgUHNKic0-17" edge="1">
          <mxGeometry relative="1" as="geometry">
            <mxPoint x="550" y="200" as="sourcePoint" />
            <mxPoint x="557.8365384615386" y="363" as="targetPoint" />
          </mxGeometry>
        </mxCell>
        <mxCell id="2DttiCM8GW-e6cQcbPvV-44" value="&lt;b&gt;&lt;font style=&quot;font-size: 16px;&quot;&gt;containment&lt;/font&gt;&lt;/b&gt;" style="edgeLabel;html=1;align=center;verticalAlign=middle;resizable=0;points=[];" parent="2DttiCM8GW-e6cQcbPvV-43" connectable="0" vertex="1">
          <mxGeometry x="-0.3794" y="-3" relative="1" as="geometry">
            <mxPoint x="3" y="23" as="offset" />
          </mxGeometry>
        </mxCell>
        <mxCell id="2DttiCM8GW-e6cQcbPvV-45" value="0-N" style="edgeLabel;html=1;align=center;verticalAlign=middle;resizable=0;points=[];" parent="2DttiCM8GW-e6cQcbPvV-43" connectable="0" vertex="1">
          <mxGeometry x="-0.9447" y="1" relative="1" as="geometry">
            <mxPoint x="9" y="9" as="offset" />
          </mxGeometry>
        </mxCell>
        <mxCell id="2DttiCM8GW-e6cQcbPvV-46" value="1-1" style="edgeLabel;html=1;align=center;verticalAlign=middle;resizable=0;points=[];" parent="1" connectable="0" vertex="1">
          <mxGeometry x="490.001334541685" y="136.00264173943847" as="geometry">
            <mxPoint x="87" y="209" as="offset" />
          </mxGeometry>
        </mxCell>
        <mxCell id="2DttiCM8GW-e6cQcbPvV-47" value="" style="endArrow=none;html=1;rounded=0;exitX=1.001;exitY=0;exitDx=0;exitDy=0;exitPerimeter=0;entryX=-0.002;entryY=-0.018;entryDx=0;entryDy=0;entryPerimeter=0;" parent="1" source="c-mmExKBXP0bgUHNKic0-11" target="2DttiCM8GW-e6cQcbPvV-10" edge="1">
          <mxGeometry relative="1" as="geometry">
            <mxPoint x="690" y="136" as="sourcePoint" />
            <mxPoint x="800" y="150" as="targetPoint" />
          </mxGeometry>
        </mxCell>
        <mxCell id="2DttiCM8GW-e6cQcbPvV-48" value="&lt;b&gt;&lt;font style=&quot;font-size: 16px;&quot;&gt;association&lt;/font&gt;&lt;/b&gt;" style="edgeLabel;html=1;align=center;verticalAlign=middle;resizable=0;points=[];" parent="2DttiCM8GW-e6cQcbPvV-47" connectable="0" vertex="1">
          <mxGeometry x="-0.3794" y="-3" relative="1" as="geometry">
            <mxPoint x="42" y="-9" as="offset" />
          </mxGeometry>
        </mxCell>
        <mxCell id="2DttiCM8GW-e6cQcbPvV-49" value="1-1" style="edgeLabel;html=1;align=center;verticalAlign=middle;resizable=0;points=[];" parent="2DttiCM8GW-e6cQcbPvV-47" connectable="0" vertex="1">
          <mxGeometry x="-0.9447" y="1" relative="1" as="geometry">
            <mxPoint x="9" y="9" as="offset" />
          </mxGeometry>
        </mxCell>
        <mxCell id="2DttiCM8GW-e6cQcbPvV-50" value="1-1" style="edgeLabel;html=1;align=center;verticalAlign=middle;resizable=0;points=[];" parent="1" connectable="0" vertex="1">
          <mxGeometry x="850" y="130" as="geometry">
            <mxPoint x="28" y="-17" as="offset" />
          </mxGeometry>
        </mxCell>
        <mxCell id="2DttiCM8GW-e6cQcbPvV-51" value="1-N" style="edgeLabel;html=1;align=center;verticalAlign=middle;resizable=0;points=[];" parent="1" connectable="0" vertex="1">
          <mxGeometry x="880.0028571428572" y="124" as="geometry">
            <mxPoint x="101" y="24" as="offset" />
          </mxGeometry>
        </mxCell>
        <mxCell id="2DttiCM8GW-e6cQcbPvV-52" value="0-N" style="edgeLabel;html=1;align=center;verticalAlign=middle;resizable=0;points=[];" parent="1" connectable="0" vertex="1">
          <mxGeometry x="880.0028571428572" y="260" as="geometry">
            <mxPoint x="101" y="24" as="offset" />
          </mxGeometry>
        </mxCell>
        <mxCell id="2DttiCM8GW-e6cQcbPvV-54" value="" style="endArrow=none;html=1;rounded=0;entryX=0.188;entryY=0;entryDx=0;entryDy=0;entryPerimeter=0;" parent="1" target="2DttiCM8GW-e6cQcbPvV-24" edge="1">
          <mxGeometry relative="1" as="geometry">
            <mxPoint x="150" y="290" as="sourcePoint" />
            <mxPoint x="150" y="349" as="targetPoint" />
          </mxGeometry>
        </mxCell>
        <mxCell id="2DttiCM8GW-e6cQcbPvV-55" value="&lt;b&gt;&lt;font style=&quot;font-size: 16px;&quot;&gt;writing&lt;/font&gt;&lt;/b&gt;" style="edgeLabel;html=1;align=center;verticalAlign=middle;resizable=0;points=[];" parent="2DttiCM8GW-e6cQcbPvV-54" connectable="0" vertex="1">
          <mxGeometry x="-0.3794" y="-3" relative="1" as="geometry">
            <mxPoint x="3" y="26" as="offset" />
          </mxGeometry>
        </mxCell>
        <mxCell id="2DttiCM8GW-e6cQcbPvV-56" value="0-N" style="edgeLabel;html=1;align=center;verticalAlign=middle;resizable=0;points=[];" parent="1" connectable="0" vertex="1">
          <mxGeometry x="310.000123034611" y="108.00302759115392" as="geometry">
            <mxPoint x="-148" y="197" as="offset" />
          </mxGeometry>
        </mxCell>
        <mxCell id="2DttiCM8GW-e6cQcbPvV-57" value="1-1" style="edgeLabel;html=1;align=center;verticalAlign=middle;resizable=0;points=[];" parent="1" connectable="0" vertex="1">
          <mxGeometry x="310.000123034611" y="185.0030275911539" as="geometry">
            <mxPoint x="-148" y="197" as="offset" />
          </mxGeometry>
        </mxCell>
        <mxCell id="2DttiCM8GW-e6cQcbPvV-58" value="" style="endArrow=none;html=1;rounded=0;entryX=0.75;entryY=0;entryDx=0;entryDy=0;exitX=0.001;exitY=0.11;exitDx=0;exitDy=0;exitPerimeter=0;" parent="1" source="c-mmExKBXP0bgUHNKic0-13" target="2DttiCM8GW-e6cQcbPvV-24" edge="1">
          <mxGeometry relative="1" as="geometry">
            <mxPoint x="160" y="300" as="sourcePoint" />
            <mxPoint x="160" y="410" as="targetPoint" />
          </mxGeometry>
        </mxCell>
        <mxCell id="2DttiCM8GW-e6cQcbPvV-59" value="&lt;b&gt;&lt;font style=&quot;font-size: 16px;&quot;&gt;re-writing&lt;/font&gt;&lt;/b&gt;" style="edgeLabel;html=1;align=center;verticalAlign=middle;resizable=0;points=[];" parent="2DttiCM8GW-e6cQcbPvV-58" connectable="0" vertex="1">
          <mxGeometry x="-0.3794" y="-3" relative="1" as="geometry">
            <mxPoint x="-44" y="42" as="offset" />
          </mxGeometry>
        </mxCell>
        <mxCell id="2DttiCM8GW-e6cQcbPvV-60" value="&lt;span style=&quot;color: rgb(0, 0, 0); font-family: Helvetica; font-size: 11px; font-style: normal; font-variant-ligatures: normal; font-variant-caps: normal; font-weight: 400; letter-spacing: normal; orphans: 2; text-align: center; text-indent: 0px; text-transform: none; widows: 2; word-spacing: 0px; -webkit-text-stroke-width: 0px; background-color: rgb(255, 255, 255); text-decoration-thickness: initial; text-decoration-style: initial; text-decoration-color: initial; float: none; display: inline !important;&quot;&gt;1-1&lt;/span&gt;" style="text;whiteSpace=wrap;html=1;" parent="1" vertex="1">
          <mxGeometry x="260" y="376" width="50" height="40" as="geometry" />
        </mxCell>
        <mxCell id="2DttiCM8GW-e6cQcbPvV-61" value="&lt;span style=&quot;color: rgb(0, 0, 0); font-family: Helvetica; font-size: 11px; font-style: normal; font-variant-ligatures: normal; font-variant-caps: normal; font-weight: 400; letter-spacing: normal; orphans: 2; text-align: center; text-indent: 0px; text-transform: none; widows: 2; word-spacing: 0px; -webkit-text-stroke-width: 0px; background-color: rgb(255, 255, 255); text-decoration-thickness: initial; text-decoration-style: initial; text-decoration-color: initial; float: none; display: inline !important;&quot;&gt;0-N&lt;/span&gt;" style="text;whiteSpace=wrap;html=1;" parent="1" vertex="1">
          <mxGeometry x="460" y="196" width="50" height="40" as="geometry" />
        </mxCell>
        <mxCell id="2DttiCM8GW-e6cQcbPvV-62" value="&lt;span style=&quot;color: rgb(0, 0, 0); font-family: Helvetica; font-size: 11px; font-style: normal; font-variant-ligatures: normal; font-variant-caps: normal; font-weight: 400; letter-spacing: normal; orphans: 2; text-align: center; text-indent: 0px; text-transform: none; widows: 2; word-spacing: 0px; -webkit-text-stroke-width: 0px; background-color: rgb(255, 255, 255); text-decoration-thickness: initial; text-decoration-style: initial; text-decoration-color: initial; float: none; display: inline !important;&quot;&gt;0-N&lt;/span&gt;" style="text;whiteSpace=wrap;html=1;" parent="1" vertex="1">
          <mxGeometry x="285" y="70" width="50" height="40" as="geometry" />
        </mxCell>
        <mxCell id="2DttiCM8GW-e6cQcbPvV-66" value="0-N" style="edgeLabel;html=1;align=center;verticalAlign=middle;resizable=0;points=[];" parent="1" connectable="0" vertex="1">
          <mxGeometry x="250.00012303461102" y="-9.996972408846077" as="geometry">
            <mxPoint x="-148" y="197" as="offset" />
          </mxGeometry>
        </mxCell>
        <mxCell id="2DttiCM8GW-e6cQcbPvV-67" value="Notification" style="swimlane;fontStyle=0;childLayout=stackLayout;horizontal=1;startSize=26;horizontalStack=0;resizeParent=1;resizeParentMax=0;resizeLast=0;collapsible=1;marginBottom=0;align=center;fontSize=14;" parent="1" vertex="1">
          <mxGeometry x="-220" y="270" width="160" height="86" as="geometry" />
        </mxCell>
        <mxCell id="2DttiCM8GW-e6cQcbPvV-68" value="&lt;b&gt;id&lt;/b&gt;" style="text;strokeColor=none;fillColor=none;spacingLeft=4;spacingRight=4;overflow=hidden;rotatable=0;points=[[0,0.5],[1,0.5]];portConstraint=eastwest;fontSize=12;whiteSpace=wrap;html=1;" parent="2DttiCM8GW-e6cQcbPvV-67" vertex="1">
          <mxGeometry y="26" width="160" height="30" as="geometry" />
        </mxCell>
        <mxCell id="2DttiCM8GW-e6cQcbPvV-86" value="type" style="text;strokeColor=none;fillColor=none;spacingLeft=4;spacingRight=4;overflow=hidden;rotatable=0;points=[[0,0.5],[1,0.5]];portConstraint=eastwest;fontSize=12;whiteSpace=wrap;html=1;" parent="2DttiCM8GW-e6cQcbPvV-67" vertex="1">
          <mxGeometry y="56" width="160" height="30" as="geometry" />
        </mxCell>
        <mxCell id="2DttiCM8GW-e6cQcbPvV-78" value="" style="endArrow=none;html=1;rounded=0;entryX=-0.017;entryY=0.167;entryDx=0;entryDy=0;entryPerimeter=0;exitX=0;exitY=0.5;exitDx=0;exitDy=0;" parent="1" source="c-mmExKBXP0bgUHNKic0-4" edge="1">
          <mxGeometry relative="1" as="geometry">
            <mxPoint x="-143" y="204" as="sourcePoint" />
            <mxPoint x="-140" y="270" as="targetPoint" />
            <Array as="points" />
          </mxGeometry>
        </mxCell>
        <mxCell id="2DttiCM8GW-e6cQcbPvV-79" value="&lt;b&gt;&lt;font style=&quot;font-size: 16px;&quot;&gt;receiving&lt;/font&gt;&lt;/b&gt;" style="edgeLabel;html=1;align=center;verticalAlign=middle;resizable=0;points=[];" parent="2DttiCM8GW-e6cQcbPvV-78" connectable="0" vertex="1">
          <mxGeometry x="-0.3794" y="-3" relative="1" as="geometry">
            <mxPoint x="-49" y="8" as="offset" />
          </mxGeometry>
        </mxCell>
        <mxCell id="2DttiCM8GW-e6cQcbPvV-82" value="&lt;span style=&quot;color: rgb(0, 0, 0); font-family: Helvetica; font-size: 11px; font-style: normal; font-variant-ligatures: normal; font-variant-caps: normal; font-weight: 400; letter-spacing: normal; orphans: 2; text-align: center; text-indent: 0px; text-transform: none; widows: 2; word-spacing: 0px; -webkit-text-stroke-width: 0px; background-color: rgb(255, 255, 255); text-decoration-thickness: initial; text-decoration-style: initial; text-decoration-color: initial; float: none; display: inline !important;&quot;&gt;1-1&lt;/span&gt;" style="text;whiteSpace=wrap;html=1;" parent="1" vertex="1">
          <mxGeometry x="-150" y="240" width="50" height="40" as="geometry" />
        </mxCell>
        <mxCell id="2DttiCM8GW-e6cQcbPvV-83" value="&lt;span style=&quot;color: rgb(0, 0, 0); font-family: Helvetica; font-size: 11px; font-style: normal; font-variant-ligatures: normal; font-variant-caps: normal; font-weight: 400; letter-spacing: normal; orphans: 2; text-align: center; text-indent: 0px; text-transform: none; widows: 2; word-spacing: 0px; -webkit-text-stroke-width: 0px; background-color: rgb(255, 255, 255); text-decoration-thickness: initial; text-decoration-style: initial; text-decoration-color: initial; float: none; display: inline !important;&quot;&gt;0-N&lt;/span&gt;" style="text;whiteSpace=wrap;html=1;" parent="1" vertex="1">
          <mxGeometry x="100" y="190" width="50" height="40" as="geometry" />
        </mxCell>
        <mxCell id="2DttiCM8GW-e6cQcbPvV-84" value="&lt;span style=&quot;color: rgb(0, 0, 0); font-family: Helvetica; font-size: 11px; font-style: normal; font-variant-ligatures: normal; font-variant-caps: normal; font-weight: 400; letter-spacing: normal; orphans: 2; text-align: center; text-indent: 0px; text-transform: none; widows: 2; word-spacing: 0px; -webkit-text-stroke-width: 0px; background-color: rgb(255, 255, 255); text-decoration-thickness: initial; text-decoration-style: initial; text-decoration-color: initial; float: none; display: inline !important;&quot;&gt;0-N&lt;/span&gt;" style="text;whiteSpace=wrap;html=1;" parent="1" vertex="1">
          <mxGeometry x="100" y="250" width="50" height="40" as="geometry" />
        </mxCell>
        <mxCell id="2DttiCM8GW-e6cQcbPvV-85" value="&lt;span style=&quot;color: rgb(0, 0, 0); font-family: Helvetica; font-size: 11px; font-style: normal; font-variant-ligatures: normal; font-variant-caps: normal; font-weight: 400; letter-spacing: normal; orphans: 2; text-align: center; text-indent: 0px; text-transform: none; widows: 2; word-spacing: 0px; -webkit-text-stroke-width: 0px; background-color: rgb(255, 255, 255); text-decoration-thickness: initial; text-decoration-style: initial; text-decoration-color: initial; float: none; display: inline !important;&quot;&gt;1-1&lt;/span&gt;" style="text;whiteSpace=wrap;html=1;" parent="1" vertex="1">
          <mxGeometry x="-60" y="300" width="50" height="40" as="geometry" />
        </mxCell>
        <mxCell id="AwfqjyAhw-UKMakSLuEx-1" value="Follow" style="swimlane;fontStyle=0;childLayout=stackLayout;horizontal=1;startSize=26;horizontalStack=0;resizeParent=1;resizeParentMax=0;resizeLast=0;collapsible=1;marginBottom=0;align=center;fontSize=14;" vertex="1" parent="1">
          <mxGeometry x="20" y="-110" width="160" height="52" as="geometry" />
        </mxCell>
        <mxCell id="AwfqjyAhw-UKMakSLuEx-2" value="&lt;b&gt;id&lt;/b&gt;" style="text;strokeColor=none;fillColor=none;spacingLeft=4;spacingRight=4;overflow=hidden;rotatable=0;points=[[0,0.5],[1,0.5]];portConstraint=eastwest;fontSize=12;whiteSpace=wrap;html=1;" vertex="1" parent="AwfqjyAhw-UKMakSLuEx-1">
          <mxGeometry y="26" width="160" height="26" as="geometry" />
        </mxCell>
        <mxCell id="AwfqjyAhw-UKMakSLuEx-18" value="" style="endArrow=none;html=1;rounded=0;entryX=0.5;entryY=0;entryDx=0;entryDy=0;exitX=0.5;exitY=1;exitDx=0;exitDy=0;" edge="1" parent="1" source="AwfqjyAhw-UKMakSLuEx-1" target="c-mmExKBXP0bgUHNKic0-1">
          <mxGeometry relative="1" as="geometry">
            <mxPoint x="240" y="-47" as="sourcePoint" />
            <mxPoint x="437" y="-48" as="targetPoint" />
          </mxGeometry>
        </mxCell>
        <mxCell id="AwfqjyAhw-UKMakSLuEx-20" value="" style="endArrow=none;html=1;rounded=0;entryX=0.875;entryY=-0.015;entryDx=0;entryDy=0;entryPerimeter=0;exitX=1.006;exitY=0.846;exitDx=0;exitDy=0;exitPerimeter=0;" edge="1" parent="1" source="AwfqjyAhw-UKMakSLuEx-2" target="c-mmExKBXP0bgUHNKic0-1">
          <mxGeometry relative="1" as="geometry">
            <mxPoint x="300" y="120" as="sourcePoint" />
            <mxPoint x="497" y="119" as="targetPoint" />
          </mxGeometry>
        </mxCell>
        <mxCell id="AwfqjyAhw-UKMakSLuEx-22" value="" style="endArrow=none;html=1;rounded=0;entryX=0.5;entryY=0;entryDx=0;entryDy=0;exitX=1;exitY=0.25;exitDx=0;exitDy=0;" edge="1" parent="1" source="AwfqjyAhw-UKMakSLuEx-1" target="c-mmExKBXP0bgUHNKic0-10">
          <mxGeometry relative="1" as="geometry">
            <mxPoint x="190" y="-100" as="sourcePoint" />
            <mxPoint x="518.5" y="-90" as="targetPoint" />
            <Array as="points">
              <mxPoint x="560" y="-97" />
            </Array>
          </mxGeometry>
        </mxCell>
        <mxCell id="AwfqjyAhw-UKMakSLuEx-23" value="&lt;b&gt;&lt;font style=&quot;font-size: 16px;&quot;&gt;track&lt;/font&gt;&lt;/b&gt;" style="edgeLabel;html=1;align=center;verticalAlign=middle;resizable=0;points=[];" connectable="0" vertex="1" parent="AwfqjyAhw-UKMakSLuEx-22">
          <mxGeometry x="-0.3794" y="-3" relative="1" as="geometry">
            <mxPoint x="19" y="-3" as="offset" />
          </mxGeometry>
        </mxCell>
        <mxCell id="AwfqjyAhw-UKMakSLuEx-25" value="&lt;span style=&quot;color: rgb(0, 0, 0); font-family: Helvetica; font-size: 11px; font-style: normal; font-variant-ligatures: normal; font-variant-caps: normal; font-weight: 400; letter-spacing: normal; orphans: 2; text-align: center; text-indent: 0px; text-transform: none; widows: 2; word-spacing: 0px; -webkit-text-stroke-width: 0px; background-color: rgb(255, 255, 255); text-decoration-thickness: initial; text-decoration-style: initial; text-decoration-color: initial; float: none; display: inline !important;&quot;&gt;0-N&lt;/span&gt;" style="text;whiteSpace=wrap;html=1;" vertex="1" parent="1">
          <mxGeometry x="160" y="60" width="30" height="20" as="geometry" />
        </mxCell>
        <mxCell id="AwfqjyAhw-UKMakSLuEx-26" value="1-1" style="text;whiteSpace=wrap;html=1;" vertex="1" parent="1">
          <mxGeometry x="80" y="-50" width="30" height="20" as="geometry" />
        </mxCell>
        <mxCell id="AwfqjyAhw-UKMakSLuEx-27" value="1-1" style="text;whiteSpace=wrap;html=1;" vertex="1" parent="1">
          <mxGeometry x="185" y="-78" width="30" height="20" as="geometry" />
        </mxCell>
        <mxCell id="AwfqjyAhw-UKMakSLuEx-30" value="0-N" style="text;whiteSpace=wrap;html=1;" vertex="1" parent="1">
          <mxGeometry x="260" y="50" width="30" height="20" as="geometry" />
        </mxCell>
        <mxCell id="AwfqjyAhw-UKMakSLuEx-31" value="0-1" style="text;whiteSpace=wrap;html=1;" vertex="1" parent="1">
          <mxGeometry x="180" y="-120" width="30" height="20" as="geometry" />
        </mxCell>
        <mxCell id="AwfqjyAhw-UKMakSLuEx-32" value="0-1" style="text;whiteSpace=wrap;html=1;" vertex="1" parent="1">
          <mxGeometry x="570" y="60" width="30" height="20" as="geometry" />
        </mxCell>
        <mxCell id="AwfqjyAhw-UKMakSLuEx-33" value="&lt;b&gt;&lt;font style=&quot;font-size: 16px;&quot;&gt;sub&lt;/font&gt;&lt;/b&gt;" style="edgeLabel;html=1;align=center;verticalAlign=middle;resizable=0;points=[];" connectable="0" vertex="1" parent="1">
          <mxGeometry x="130" as="geometry">
            <mxPoint x="-8" y="-2" as="offset" />
          </mxGeometry>
        </mxCell>
        <mxCell id="AwfqjyAhw-UKMakSLuEx-37" value="&lt;b&gt;&lt;font style=&quot;font-size: 16px;&quot;&gt;affec&lt;/font&gt;&lt;/b&gt;" style="edgeLabel;html=1;align=center;verticalAlign=middle;resizable=0;points=[];" connectable="0" vertex="1" parent="1">
          <mxGeometry x="215" y="-10" as="geometry" />
        </mxCell>
      </root>
    </mxGraphModel>
  </diagram>
</mxfile>
